<svg width="1080" height="1080" viewBox="0 0 1080 1080" fill="none" xmlns="http://www.w3.org/2000/svg">
<path fill-rule="evenodd" clip-rule="evenodd" d="M349 245H383.38H418.324H452.704H487.648H522.028H556.972H591.352H626.296H660.676H695.62H730V279.938V314.312H695.62L695.62 349.25L695.62 383.625L695.62 418.563H660.676V452.373V487.311H626.296V452.373V417.999H660.676L660.676 383.625L660.676 349.25L660.676 314.312L626.296 314.312L591.352 314.312L556.972 314.312L522.028 314.312L487.648 314.312L452.704 314.312L418.324 314.312L418.324 349.25V383.625L418.324 417.999H452.704V452.373V487.311H418.324L418.324 452.373L418.324 418.563H383.38V383.625V349.25V314.312L349 314.312L349 279.938V245ZM452.704 487.311H487.084V522.249H452.704V487.311ZM418.324 661.437H452.704V627.063L452.704 592.125H418.324L418.324 627.063L418.324 661.437ZM660.676 661.437V696.375L660.676 730.75L660.676 765.688H626.296H591.352H556.972H522.028H487.648H452.704H418.324V730.75V696.375L418.324 661.437H383.38V696.375V730.75V765.688H349L349 800.062L349 835H383.38H418.324H452.704H487.648H522.028H556.972H591.352H626.296H660.676H695.62H730V800.062V765.688H695.62L695.62 730.75L695.62 696.375V661.437H660.676ZM626.296 592.125H660.676V627.063V661.437H626.296V627.063V592.125ZM626.296 592.125H591.916V557.187H626.296V592.125ZM625.732 487.311H591.352V522.249L556.972 522.249V557.187H591.352L591.352 522.249H625.732V487.311ZM453.268 592.125H487.648V557.187L522.028 557.187V522.249H487.648V557.187H453.268L453.268 592.125Z" fill="#4268F0"/>
<path fill-rule="evenodd" clip-rule="evenodd" d="M487.026 315H452V349.825L452 384.088L487.026 384.088L487.026 418.912L487.026 453.175H521.487V488H556.513V453.175H590.974V418.912V384.088L626 384.088V349.825V315H590.974H556.513H521.487H487.026Z" fill="#93B1FF"/>
</svg>
