<svg width="1080" height="1080" viewBox="0 0 1080 1080" fill="none" xmlns="http://www.w3.org/2000/svg">
<path fill-rule="evenodd" clip-rule="evenodd" d="M556.912 593H522.088V627.825L487.825 627.825L487.825 662.088H453V696.912V731.175V766H487.825H522.088H556.912H591.175H626L626 731.175L626 696.912V662.088H591.175V627.825H556.912V593Z" fill="#93B1FF"/>
<path fill-rule="evenodd" clip-rule="evenodd" d="M349 246H383.38H418.324H452.704H487.648H522.028H556.972H591.352H626.296H660.676H695.62H730V280.879L730 315.195H695.62L695.62 350.074V384.39V419.268H660.676V453.022V487.901H626.296V453.022V418.706H660.676V384.39V350.074V315.195L626.296 315.195L591.352 315.195L556.972 315.195L522.028 315.195L487.648 315.195L452.704 315.195L418.324 315.195L418.324 350.074V384.39V418.706H452.704V453.022V487.901H418.324L418.324 453.022L418.324 419.268H383.38L383.38 384.39L383.38 350.074L383.38 315.195L349 315.195L349 280.879V246ZM452.704 487.901H487.084V522.779H452.704V487.901ZM418.324 661.732H452.704V627.415V592.537H418.324V627.415L418.324 661.732ZM660.676 661.732V696.61V730.926V765.805H626.296H591.352H556.972H522.028H487.648H452.704H418.324V730.926V696.61L418.324 661.732H383.38V696.61L383.38 730.926L383.38 765.805H349L349 800.121L349 835H383.38H418.324H452.704H487.648H522.028H556.972H591.352H626.296H660.676H695.62H730L730 800.121V765.805H695.62V730.926V696.61V661.732H660.676ZM626.296 592.537H660.676V627.415V661.732H626.296V627.415V592.537ZM626.296 592.537H591.916V557.658H626.296V592.537ZM625.732 487.901H591.352V522.779L556.972 522.779V557.658H591.352V522.779H625.732V487.901ZM453.268 592.537H487.648V557.658L522.028 557.658V522.779H487.648V557.658H453.268L453.268 592.537Z" fill="#4268F0"/>
</svg>
