<svg width="1080" height="1080" viewBox="0 0 1080 1080" fill="none" xmlns="http://www.w3.org/2000/svg">
<path fill-rule="evenodd" clip-rule="evenodd" d="M349 246H383.38H418.324H452.704H487.648H522.028H556.972H591.352H626.296H660.676H695.62H730V280.879V315.195H695.62L695.62 350.074L695.62 384.39L695.62 419.268H660.676V453.022V487.901H626.296V453.022V418.706H660.676L660.676 384.39L660.676 350.074L660.676 315.195L626.296 315.195L591.352 315.195L556.972 315.195L522.028 315.195L487.648 315.195L452.704 315.195L418.324 315.195L418.324 350.074V384.39L418.324 418.706H452.704V453.022V487.901H418.324L418.324 453.022L418.324 419.268H383.38V384.39V350.074V315.195L349 315.195L349 280.879V246ZM452.704 487.901H487.084V522.779H452.704V487.901ZM418.324 661.732H452.704V627.415L452.704 592.537H418.324L418.324 627.415L418.324 661.732ZM660.676 661.732V696.61L660.676 730.926L660.676 765.805H626.296H591.352H556.972H522.028H487.648H452.704H418.324V730.926V696.61L418.324 661.732H383.38V696.61V730.926V765.805H349L349 800.121L349 835H383.38H418.324H452.704H487.648H522.028H556.972H591.352H626.296H660.676H695.62H730V800.121V765.805H695.62L695.62 730.926L695.62 696.61V661.732H660.676ZM626.296 592.537H660.676V627.415V661.732H626.296V627.415V592.537ZM626.296 592.537H591.916V557.658H626.296V592.537ZM625.732 487.901H591.352V522.779L556.972 522.779V557.658H591.352L591.352 522.779H625.732V487.901ZM453.268 592.537H487.648V557.658L522.028 557.658V522.779H487.648V557.658H453.268L453.268 592.537Z" fill="#4268F0"/>
<path fill-rule="evenodd" clip-rule="evenodd" d="M487.825 315H522.088H556.912H591.175H626V349.909V384.255L591.175 384.255L591.175 419.164H556.912V453.509H522.088V419.164L487.825 419.164L487.825 384.255L487.825 349.909V315ZM487.825 315H453V349.909H487.825V315ZM522.088 592.582H556.351V627.491H522.088V592.582ZM522.088 661.836H556.912H591.175V696.745H626V731.091V766H591.175H556.912H522.088H487.825H453V731.091H487.825L487.825 696.745H522.088V661.836Z" fill="#93B1FF"/>
</svg>
